solid GiD
  facet normal               0               0               1  
    outer loop
      vertex               2               0               0
      vertex               2               1               0
      vertex               1               0               0
    endloop
  endfacet
  facet normal               0               0               1  
    outer loop
      vertex               2               1               0
      vertex               1               1               0
      vertex               1               0               0
    endloop
  endfacet
  facet normal               0              -0               1  
    outer loop
      vertex               3               0               0
      vertex               3               1               0
      vertex               2               0               0
    endloop
  endfacet
  facet normal               0               0               1  
    outer loop
      vertex               3               1               0
      vertex               2               1               0
      vertex               2               0               0
    endloop
  endfacet
  facet normal               0               0               1  
    outer loop
      vertex               4               0               0
      vertex               4               1               0
      vertex               3               0               0
    endloop
  endfacet
  facet normal               0               0               1  
    outer loop
      vertex               4               1               0
      vertex               3               1               0
      vertex               3               0               0
    endloop
  endfacet
  facet normal               0              -0               1  
    outer loop
      vertex               5               0               0
      vertex               5               1               0
      vertex               4               0               0
    endloop
  endfacet
  facet normal               0               0               1  
    outer loop
      vertex               5               1               0
      vertex               4               1               0
      vertex               4               0               0
    endloop
  endfacet
  facet normal               0              -0               1  
    outer loop
      vertex               6               0               0
      vertex               6               1               0
      vertex               5               0               0
    endloop
  endfacet
  facet normal               0               0               1  
    outer loop
      vertex               6               1               0
      vertex               5               1               0
      vertex               5               0               0
    endloop
  endfacet
  facet normal               0              -0               1  
    outer loop
      vertex               7               0               0
      vertex               7               1               0
      vertex               6               0               0
    endloop
  endfacet
  facet normal               0               0               1  
    outer loop
      vertex               7               1               0
      vertex               6               1               0
      vertex               6               0               0
    endloop
  endfacet
  facet normal               0              -0               1  
    outer loop
      vertex               8               0               0
      vertex               8               1               0
      vertex               7               0               0
    endloop
  endfacet
  facet normal               0               0               1  
    outer loop
      vertex               8               1               0
      vertex               7               1               0
      vertex               7               0               0
    endloop
  endfacet
  facet normal               0              -0               1  
    outer loop
      vertex               9               0               0
      vertex               9               1               0
      vertex               8               0               0
    endloop
  endfacet
  facet normal               0               0               1  
    outer loop
      vertex               9               1               0
      vertex               8               1               0
      vertex               8               0               0
    endloop
  endfacet
  facet normal               0              -0               1  
    outer loop
      vertex              10               0               0
      vertex              10               1               0
      vertex               9               0               0
    endloop
  endfacet
  facet normal               0               0               1  
    outer loop
      vertex              10               1               0
      vertex               9               1               0
      vertex               9               0               0
    endloop
  endfacet
  facet normal               0              -0               1  
    outer loop
      vertex               2               1               0
      vertex               2               2               0
      vertex               1               1               0
    endloop
  endfacet
  facet normal               0               0               1  
    outer loop
      vertex               2               2               0
      vertex               1               2               0
      vertex               1               1               0
    endloop
  endfacet
  facet normal               0               0               1  
    outer loop
      vertex               3               1               0
      vertex               3               2               0
      vertex               2               1               0
    endloop
  endfacet
  facet normal               0               0               1  
    outer loop
      vertex               3               2               0
      vertex               2               2               0
      vertex               2               1               0
    endloop
  endfacet
  facet normal               0              -0               1  
    outer loop
      vertex               4               1               0
      vertex               4               2               0
      vertex               3               1               0
    endloop
  endfacet
  facet normal               0               0               1  
    outer loop
      vertex               4               2               0
      vertex               3               2               0
      vertex               3               1               0
    endloop
  endfacet
  facet normal               0              -0               1  
    outer loop
      vertex               5               1               0
      vertex               5               2               0
      vertex               4               1               0
    endloop
  endfacet
  facet normal               0               0               1  
    outer loop
      vertex               5               2               0
      vertex               4               2               0
      vertex               4               1               0
    endloop
  endfacet
  facet normal               0               0               1  
    outer loop
      vertex               6               1               0
      vertex               6               2               0
      vertex               5               1               0
    endloop
  endfacet
  facet normal               0               0               1  
    outer loop
      vertex               6               2               0
      vertex               5               2               0
      vertex               5               1               0
    endloop
  endfacet
  facet normal               0               0               1  
    outer loop
      vertex               7               1               0
      vertex               7               2               0
      vertex               6               1               0
    endloop
  endfacet
  facet normal               0               0               1  
    outer loop
      vertex               7               2               0
      vertex               6               2               0
      vertex               6               1               0
    endloop
  endfacet
  facet normal               0              -0               1  
    outer loop
      vertex               8               1               0
      vertex               8               2               0
      vertex               7               1               0
    endloop
  endfacet
  facet normal               0               0               1  
    outer loop
      vertex               8               2               0
      vertex               7               2               0
      vertex               7               1               0
    endloop
  endfacet
  facet normal               0               0               1  
    outer loop
      vertex               9               1               0
      vertex               9               2               0
      vertex               8               1               0
    endloop
  endfacet
  facet normal               0               0               1  
    outer loop
      vertex               9               2               0
      vertex               8               2               0
      vertex               8               1               0
    endloop
  endfacet
  facet normal               0              -0               1  
    outer loop
      vertex              10               1               0
      vertex              10               2               0
      vertex               9               1               0
    endloop
  endfacet
  facet normal               0               0               1  
    outer loop
      vertex              10               2               0
      vertex               9               2               0
      vertex               9               1               0
    endloop
  endfacet
  facet normal               0              -0               1  
    outer loop
      vertex               2               2               0
      vertex               2               3               0
      vertex               1               2               0
    endloop
  endfacet
  facet normal               0               0               1  
    outer loop
      vertex               2               3               0
      vertex               1               3               0
      vertex               1               2               0
    endloop
  endfacet
  facet normal               0               0               1  
    outer loop
      vertex               3               2               0
      vertex               3               3               0
      vertex               2               2               0
    endloop
  endfacet
  facet normal               0               0               1  
    outer loop
      vertex               3               3               0
      vertex               2               3               0
      vertex               2               2               0
    endloop
  endfacet
  facet normal               0              -0               1  
    outer loop
      vertex               4               2               0
      vertex               4               3               0
      vertex               3               2               0
    endloop
  endfacet
  facet normal               0               0               1  
    outer loop
      vertex               4               3               0
      vertex               3               3               0
      vertex               3               2               0
    endloop
  endfacet
  facet normal               0              -0               1  
    outer loop
      vertex               5               2               0
      vertex               5               3               0
      vertex               4               2               0
    endloop
  endfacet
  facet normal               0               0               1  
    outer loop
      vertex               5               3               0
      vertex               4               3               0
      vertex               4               2               0
    endloop
  endfacet
  facet normal               0              -0               1  
    outer loop
      vertex               6               2               0
      vertex               6               3               0
      vertex               5               2               0
    endloop
  endfacet
  facet normal               0               0               1  
    outer loop
      vertex               6               3               0
      vertex               5               3               0
      vertex               5               2               0
    endloop
  endfacet
  facet normal               0              -0               1  
    outer loop
      vertex               7               2               0
      vertex               7               3               0
      vertex               6               2               0
    endloop
  endfacet
  facet normal               0               0               1  
    outer loop
      vertex               7               3               0
      vertex               6               3               0
      vertex               6               2               0
    endloop
  endfacet
  facet normal               0              -0               1  
    outer loop
      vertex               8               2               0
      vertex               8               3               0
      vertex               7               2               0
    endloop
  endfacet
  facet normal               0               0               1  
    outer loop
      vertex               8               3               0
      vertex               7               3               0
      vertex               7               2               0
    endloop
  endfacet
  facet normal               0               0               1  
    outer loop
      vertex               9               2               0
      vertex               9               3               0
      vertex               8               2               0
    endloop
  endfacet
  facet normal               0               0               1  
    outer loop
      vertex               9               3               0
      vertex               8               3               0
      vertex               8               2               0
    endloop
  endfacet
  facet normal               0              -0               1  
    outer loop
      vertex              10               2               0
      vertex              10               3               0
      vertex               9               2               0
    endloop
  endfacet
  facet normal               0               0               1  
    outer loop
      vertex              10               3               0
      vertex               9               3               0
      vertex               9               2               0
    endloop
  endfacet
  facet normal               0              -0               1  
    outer loop
      vertex               2               3               0
      vertex               2               4               0
      vertex               1               3               0
    endloop
  endfacet
  facet normal               0               0               1  
    outer loop
      vertex               2               4               0
      vertex               1               4               0
      vertex               1               3               0
    endloop
  endfacet
  facet normal               0              -0               1  
    outer loop
      vertex               3               3               0
      vertex               3               4               0
      vertex               2               3               0
    endloop
  endfacet
  facet normal               0               0               1  
    outer loop
      vertex               3               4               0
      vertex               2               4               0
      vertex               2               3               0
    endloop
  endfacet
  facet normal               0              -0               1  
    outer loop
      vertex               4               3               0
      vertex               4               4               0
      vertex               3               3               0
    endloop
  endfacet
  facet normal               0               0               1  
    outer loop
      vertex               4               4               0
      vertex               3               4               0
      vertex               3               3               0
    endloop
  endfacet
  facet normal               0              -0               1  
    outer loop
      vertex               5               3               0
      vertex               5               4               0
      vertex               4               3               0
    endloop
  endfacet
  facet normal               0               0               1  
    outer loop
      vertex               5               4               0
      vertex               4               4               0
      vertex               4               3               0
    endloop
  endfacet
  facet normal               0              -0               1  
    outer loop
      vertex               6               3               0
      vertex               6               4               0
      vertex               5               3               0
    endloop
  endfacet
  facet normal               0               0               1  
    outer loop
      vertex               6               4               0
      vertex               5               4               0
      vertex               5               3               0
    endloop
  endfacet
  facet normal               0              -0               1  
    outer loop
      vertex               7               3               0
      vertex               7               4               0
      vertex               6               3               0
    endloop
  endfacet
  facet normal               0               0               1  
    outer loop
      vertex               7               4               0
      vertex               6               4               0
      vertex               6               3               0
    endloop
  endfacet
  facet normal               0              -0               1  
    outer loop
      vertex               8               3               0
      vertex               8               4               0
      vertex               7               3               0
    endloop
  endfacet
  facet normal               0               0               1  
    outer loop
      vertex               8               4               0
      vertex               7               4               0
      vertex               7               3               0
    endloop
  endfacet
  facet normal               0              -0               1  
    outer loop
      vertex               9               3               0
      vertex               9               4               0
      vertex               8               3               0
    endloop
  endfacet
  facet normal               0               0               1  
    outer loop
      vertex               9               4               0
      vertex               8               4               0
      vertex               8               3               0
    endloop
  endfacet
  facet normal               0              -0               1  
    outer loop
      vertex              10               3               0
      vertex              10               4               0
      vertex               9               3               0
    endloop
  endfacet
  facet normal               0               0               1  
    outer loop
      vertex              10               4               0
      vertex               9               4               0
      vertex               9               3               0
    endloop
  endfacet
  facet normal               0              -0               1  
    outer loop
      vertex               2               4               0
      vertex               2               5               0
      vertex               1               4               0
    endloop
  endfacet
  facet normal               0               0               1  
    outer loop
      vertex               2               5               0
      vertex               1               5               0
      vertex               1               4               0
    endloop
  endfacet
  facet normal               0              -0               1  
    outer loop
      vertex               3               4               0
      vertex               3               5               0
      vertex               2               4               0
    endloop
  endfacet
  facet normal               0               0               1  
    outer loop
      vertex               3               5               0
      vertex               2               5               0
      vertex               2               4               0
    endloop
  endfacet
  facet normal               0              -0               1  
    outer loop
      vertex               4               4               0
      vertex               4               5               0
      vertex               3               4               0
    endloop
  endfacet
  facet normal               0               0               1  
    outer loop
      vertex               4               5               0
      vertex               3               5               0
      vertex               3               4               0
    endloop
  endfacet
  facet normal               0              -0               1  
    outer loop
      vertex               5               4               0
      vertex               5               5               0
      vertex               4               4               0
    endloop
  endfacet
  facet normal               0               0               1  
    outer loop
      vertex               5               5               0
      vertex               4               5               0
      vertex               4               4               0
    endloop
  endfacet
  facet normal               0              -0               1  
    outer loop
      vertex               6               4               0
      vertex               6               5               0
      vertex               5               4               0
    endloop
  endfacet
  facet normal               0               0               1  
    outer loop
      vertex               6               5               0
      vertex               5               5               0
      vertex               5               4               0
    endloop
  endfacet
  facet normal               0              -0               1  
    outer loop
      vertex               7               4               0
      vertex               7               5               0
      vertex               6               4               0
    endloop
  endfacet
  facet normal               0               0               1  
    outer loop
      vertex               7               5               0
      vertex               6               5               0
      vertex               6               4               0
    endloop
  endfacet
  facet normal               0              -0               1  
    outer loop
      vertex               8               4               0
      vertex               8               5               0
      vertex               7               4               0
    endloop
  endfacet
  facet normal               0               0               1  
    outer loop
      vertex               8               5               0
      vertex               7               5               0
      vertex               7               4               0
    endloop
  endfacet
  facet normal               0              -0               1  
    outer loop
      vertex               9               4               0
      vertex               9               5               0
      vertex               8               4               0
    endloop
  endfacet
  facet normal               0               0               1  
    outer loop
      vertex               9               5               0
      vertex               8               5               0
      vertex               8               4               0
    endloop
  endfacet
  facet normal               0              -0               1  
    outer loop
      vertex              10               4               0
      vertex              10               5               0
      vertex               9               4               0
    endloop
  endfacet
  facet normal               0               0               1  
    outer loop
      vertex              10               5               0
      vertex               9               5               0
      vertex               9               4               0
    endloop
  endfacet
  facet normal               0              -0               1  
    outer loop
      vertex               2               5               0
      vertex               2               6               0
      vertex               1               5               0
    endloop
  endfacet
  facet normal               0               0               1  
    outer loop
      vertex               2               6               0
      vertex               1               6               0
      vertex               1               5               0
    endloop
  endfacet
  facet normal               0              -0               1  
    outer loop
      vertex               3               5               0
      vertex               3               6               0
      vertex               2               5               0
    endloop
  endfacet
  facet normal               0               0               1  
    outer loop
      vertex               3               6               0
      vertex               2               6               0
      vertex               2               5               0
    endloop
  endfacet
  facet normal               0              -0               1  
    outer loop
      vertex               4               5               0
      vertex               4               6               0
      vertex               3               5               0
    endloop
  endfacet
  facet normal               0               0               1  
    outer loop
      vertex               4               6               0
      vertex               3               6               0
      vertex               3               5               0
    endloop
  endfacet
  facet normal               0              -0               1  
    outer loop
      vertex               5               5               0
      vertex               5               6               0
      vertex               4               5               0
    endloop
  endfacet
  facet normal               0               0               1  
    outer loop
      vertex               5               6               0
      vertex               4               6               0
      vertex               4               5               0
    endloop
  endfacet
  facet normal               0              -0               1  
    outer loop
      vertex               6               5               0
      vertex               6               6               0
      vertex               5               5               0
    endloop
  endfacet
  facet normal               0               0               1  
    outer loop
      vertex               6               6               0
      vertex               5               6               0
      vertex               5               5               0
    endloop
  endfacet
  facet normal               0              -0               1  
    outer loop
      vertex               7               5               0
      vertex               7               6               0
      vertex               6               5               0
    endloop
  endfacet
  facet normal               0               0               1  
    outer loop
      vertex               7               6               0
      vertex               6               6               0
      vertex               6               5               0
    endloop
  endfacet
  facet normal               0              -0               1  
    outer loop
      vertex               8               5               0
      vertex               8               6               0
      vertex               7               5               0
    endloop
  endfacet
  facet normal               0               0               1  
    outer loop
      vertex               8               6               0
      vertex               7               6               0
      vertex               7               5               0
    endloop
  endfacet
  facet normal               0              -0               1  
    outer loop
      vertex               9               5               0
      vertex               9               6               0
      vertex               8               5               0
    endloop
  endfacet
  facet normal               0               0               1  
    outer loop
      vertex               9               6               0
      vertex               8               6               0
      vertex               8               5               0
    endloop
  endfacet
  facet normal               0              -0               1  
    outer loop
      vertex              10               5               0
      vertex              10               6               0
      vertex               9               5               0
    endloop
  endfacet
  facet normal               0               0               1  
    outer loop
      vertex              10               6               0
      vertex               9               6               0
      vertex               9               5               0
    endloop
  endfacet
  facet normal               0               0               1  
    outer loop
      vertex               2               6               0
      vertex               2               7               0
      vertex               1               6               0
    endloop
  endfacet
  facet normal               0               0               1  
    outer loop
      vertex               2               7               0
      vertex               1               7               0
      vertex               1               6               0
    endloop
  endfacet
  facet normal               0               0               1  
    outer loop
      vertex               3               6               0
      vertex               3               7               0
      vertex               2               6               0
    endloop
  endfacet
  facet normal               0               0               1  
    outer loop
      vertex               3               7               0
      vertex               2               7               0
      vertex               2               6               0
    endloop
  endfacet
  facet normal               0              -0               1  
    outer loop
      vertex               4               6               0
      vertex               4               7               0
      vertex               3               6               0
    endloop
  endfacet
  facet normal               0               0               1  
    outer loop
      vertex               4               7               0
      vertex               3               7               0
      vertex               3               6               0
    endloop
  endfacet
  facet normal               0              -0               1  
    outer loop
      vertex               5               6               0
      vertex               5               7               0
      vertex               4               6               0
    endloop
  endfacet
  facet normal               0               0               1  
    outer loop
      vertex               5               7               0
      vertex               4               7               0
      vertex               4               6               0
    endloop
  endfacet
  facet normal               0              -0               1  
    outer loop
      vertex               6               6               0
      vertex               6               7               0
      vertex               5               6               0
    endloop
  endfacet
  facet normal               0               0               1  
    outer loop
      vertex               6               7               0
      vertex               5               7               0
      vertex               5               6               0
    endloop
  endfacet
  facet normal               0              -0               1  
    outer loop
      vertex               7               6               0
      vertex               7               7               0
      vertex               6               6               0
    endloop
  endfacet
  facet normal               0               0               1  
    outer loop
      vertex               7               7               0
      vertex               6               7               0
      vertex               6               6               0
    endloop
  endfacet
  facet normal               0              -0               1  
    outer loop
      vertex               8               6               0
      vertex               8               7               0
      vertex               7               6               0
    endloop
  endfacet
  facet normal               0               0               1  
    outer loop
      vertex               8               7               0
      vertex               7               7               0
      vertex               7               6               0
    endloop
  endfacet
  facet normal               0              -0               1  
    outer loop
      vertex               9               6               0
      vertex               9               7               0
      vertex               8               6               0
    endloop
  endfacet
  facet normal               0               0               1  
    outer loop
      vertex               9               7               0
      vertex               8               7               0
      vertex               8               6               0
    endloop
  endfacet
  facet normal               0              -0               1  
    outer loop
      vertex              10               6               0
      vertex              10               7               0
      vertex               9               6               0
    endloop
  endfacet
  facet normal               0               0               1  
    outer loop
      vertex              10               7               0
      vertex               9               7               0
      vertex               9               6               0
    endloop
  endfacet
  facet normal               0              -0               1  
    outer loop
      vertex               2               7               0
      vertex               2               8               0
      vertex               1               7               0
    endloop
  endfacet
  facet normal               0               0               1  
    outer loop
      vertex               2               8               0
      vertex               1               8               0
      vertex               1               7               0
    endloop
  endfacet
  facet normal               0              -0               1  
    outer loop
      vertex               3               7               0
      vertex               3               8               0
      vertex               2               7               0
    endloop
  endfacet
  facet normal               0               0               1  
    outer loop
      vertex               3               8               0
      vertex               2               8               0
      vertex               2               7               0
    endloop
  endfacet
  facet normal               0               0               1  
    outer loop
      vertex               4               7               0
      vertex               4               8               0
      vertex               3               7               0
    endloop
  endfacet
  facet normal               0               0               1  
    outer loop
      vertex               4               8               0
      vertex               3               8               0
      vertex               3               7               0
    endloop
  endfacet
  facet normal               0               0               1  
    outer loop
      vertex               5               7               0
      vertex               5               8               0
      vertex               4               7               0
    endloop
  endfacet
  facet normal               0               0               1  
    outer loop
      vertex               5               8               0
      vertex               4               8               0
      vertex               4               7               0
    endloop
  endfacet
  facet normal               0               0               1  
    outer loop
      vertex               6               7               0
      vertex               6               8               0
      vertex               5               7               0
    endloop
  endfacet
  facet normal               0               0               1  
    outer loop
      vertex               6               8               0
      vertex               5               8               0
      vertex               5               7               0
    endloop
  endfacet
  facet normal               0               0               1  
    outer loop
      vertex               7               7               0
      vertex               7               8               0
      vertex               6               7               0
    endloop
  endfacet
  facet normal               0               0               1  
    outer loop
      vertex               7               8               0
      vertex               6               8               0
      vertex               6               7               0
    endloop
  endfacet
  facet normal               0               0               1  
    outer loop
      vertex               8               7               0
      vertex               8               8               0
      vertex               7               7               0
    endloop
  endfacet
  facet normal               0               0               1  
    outer loop
      vertex               8               8               0
      vertex               7               8               0
      vertex               7               7               0
    endloop
  endfacet
  facet normal               0              -0               1  
    outer loop
      vertex               9               7               0
      vertex               9               8               0
      vertex               8               7               0
    endloop
  endfacet
  facet normal               0               0               1  
    outer loop
      vertex               9               8               0
      vertex               8               8               0
      vertex               8               7               0
    endloop
  endfacet
  facet normal               0              -0               1  
    outer loop
      vertex              10               7               0
      vertex              10               8               0
      vertex               9               7               0
    endloop
  endfacet
  facet normal               0               0               1  
    outer loop
      vertex              10               8               0
      vertex               9               8               0
      vertex               9               7               0
    endloop
  endfacet
  facet normal               0              -0               1  
    outer loop
      vertex               2               8               0
      vertex               2               9               0
      vertex               1               8               0
    endloop
  endfacet
  facet normal               0               0               1  
    outer loop
      vertex               2               9               0
      vertex               1               9               0
      vertex               1               8               0
    endloop
  endfacet
  facet normal               0              -0               1  
    outer loop
      vertex               3               8               0
      vertex               3               9               0
      vertex               2               8               0
    endloop
  endfacet
  facet normal               0               0               1  
    outer loop
      vertex               3               9               0
      vertex               2               9               0
      vertex               2               8               0
    endloop
  endfacet
  facet normal               0              -0               1  
    outer loop
      vertex               4               8               0
      vertex               4               9               0
      vertex               3               8               0
    endloop
  endfacet
  facet normal               0               0               1  
    outer loop
      vertex               4               9               0
      vertex               3               9               0
      vertex               3               8               0
    endloop
  endfacet
  facet normal               0              -0               1  
    outer loop
      vertex               5               8               0
      vertex               5               9               0
      vertex               4               8               0
    endloop
  endfacet
  facet normal               0               0               1  
    outer loop
      vertex               5               9               0
      vertex               4               9               0
      vertex               4               8               0
    endloop
  endfacet
  facet normal               0              -0               1  
    outer loop
      vertex               6               8               0
      vertex               6               9               0
      vertex               5               8               0
    endloop
  endfacet
  facet normal               0               0               1  
    outer loop
      vertex               6               9               0
      vertex               5               9               0
      vertex               5               8               0
    endloop
  endfacet
  facet normal               0               0               1  
    outer loop
      vertex               7               8               0
      vertex               7               9               0
      vertex               6               8               0
    endloop
  endfacet
  facet normal               0               0               1  
    outer loop
      vertex               7               9               0
      vertex               6               9               0
      vertex               6               8               0
    endloop
  endfacet
  facet normal               0              -0               1  
    outer loop
      vertex               8               8               0
      vertex               8               9               0
      vertex               7               8               0
    endloop
  endfacet
  facet normal               0               0               1  
    outer loop
      vertex               8               9               0
      vertex               7               9               0
      vertex               7               8               0
    endloop
  endfacet
  facet normal               0              -0               1  
    outer loop
      vertex               9               8               0
      vertex               9               9               0
      vertex               8               8               0
    endloop
  endfacet
  facet normal               0               0               1  
    outer loop
      vertex               9               9               0
      vertex               8               9               0
      vertex               8               8               0
    endloop
  endfacet
  facet normal               0              -0               1  
    outer loop
      vertex              10               8               0
      vertex              10               9               0
      vertex               9               8               0
    endloop
  endfacet
  facet normal               0               0               1  
    outer loop
      vertex              10               9               0
      vertex               9               9               0
      vertex               9               8               0
    endloop
  endfacet
  facet normal               0              -0               1  
    outer loop
      vertex               2               9               0
      vertex               2              10               0
      vertex               1               9               0
    endloop
  endfacet
  facet normal               0               0               1  
    outer loop
      vertex               2              10               0
      vertex               1              10               0
      vertex               1               9               0
    endloop
  endfacet
  facet normal               0              -0               1  
    outer loop
      vertex               3               9               0
      vertex               3              10               0
      vertex               2               9               0
    endloop
  endfacet
  facet normal               0               0               1  
    outer loop
      vertex               3              10               0
      vertex               2              10               0
      vertex               2               9               0
    endloop
  endfacet
  facet normal               0              -0               1  
    outer loop
      vertex               4               9               0
      vertex               4              10               0
      vertex               3               9               0
    endloop
  endfacet
  facet normal               0               0               1  
    outer loop
      vertex               4              10               0
      vertex               3              10               0
      vertex               3               9               0
    endloop
  endfacet
  facet normal               0              -0               1  
    outer loop
      vertex               5               9               0
      vertex               5              10               0
      vertex               4               9               0
    endloop
  endfacet
  facet normal               0               0               1  
    outer loop
      vertex               5              10               0
      vertex               4              10               0
      vertex               4               9               0
    endloop
  endfacet
  facet normal               0              -0               1  
    outer loop
      vertex               6               9               0
      vertex               6              10               0
      vertex               5               9               0
    endloop
  endfacet
  facet normal               0               0               1  
    outer loop
      vertex               6              10               0
      vertex               5              10               0
      vertex               5               9               0
    endloop
  endfacet
  facet normal               0              -0               1  
    outer loop
      vertex               7               9               0
      vertex               7              10               0
      vertex               6               9               0
    endloop
  endfacet
  facet normal               0               0               1  
    outer loop
      vertex               7              10               0
      vertex               6              10               0
      vertex               6               9               0
    endloop
  endfacet
  facet normal               0              -0               1  
    outer loop
      vertex               8               9               0
      vertex               8              10               0
      vertex               7               9               0
    endloop
  endfacet
  facet normal               0               0               1  
    outer loop
      vertex               8              10               0
      vertex               7              10               0
      vertex               7               9               0
    endloop
  endfacet
  facet normal               0              -0               1  
    outer loop
      vertex               9               9               0
      vertex               9              10               0
      vertex               8               9               0
    endloop
  endfacet
  facet normal               0               0               1  
    outer loop
      vertex               9              10               0
      vertex               8              10               0
      vertex               8               9               0
    endloop
  endfacet
  facet normal               0              -0               1  
    outer loop
      vertex              10               9               0
      vertex              10              10               0
      vertex               9               9               0
    endloop
  endfacet
  facet normal               0               0               1  
    outer loop
      vertex              10              10               0
      vertex               9              10               0
      vertex               9               9               0
    endloop
  endfacet
endsolid GiD
